<svg xmlns="http://www.w3.org/2000/svg" viewBox="0 0 80.33 78.67">
  <title>social-icon-github-w</title>
  <g id="Layer_1" data-name="Layer 1">
    <path d="M40,1A38.67,38.67,0,0,0,27.78,76.38c1.93.35,2.64-.84,2.64-1.86s0-3.35-.05-6.58c-10.75,2.34-13-5.18-13-5.18C15.58,58.29,13,57.1,13,57.1c-3.51-2.4.27-2.35.27-2.35,3.88.27,5.92,4,5.92,4,3.45,5.91,9,4.2,11.25,3.21a8.25,8.25,0,0,1,2.45-5.17c-8.58-1-17.61-4.29-17.61-19.11a15,15,0,0,1,4-10.37,13.89,13.89,0,0,1,.38-10.23s3.25-1,10.63,4a36.66,36.66,0,0,1,19.36,0c7.38-5,10.62-4,10.62-4a13.87,13.87,0,0,1,.38,10.23,14.92,14.92,0,0,1,4,10.37c0,14.85-9,18.12-17.65,19.08,1.39,1.19,2.63,3.55,2.63,7.16,0,5.17,0,9.34,0,10.61,0,1,.7,2.24,2.66,1.86A38.67,38.67,0,0,0,40,1" fill="#fff" fill-rule="evenodd"/>
  </g>
</svg>
